<svg id="Layer_1" data-name="Layer 1" xmlns="http://www.w3.org/2000/svg" viewBox="0 0 221.39 64.26"><defs><style>.cls-1{fill:#27aae1;}.cls-2{fill:#fbb040;}.cls-3{fill:#1c75bc;}.cls-4{fill:#939598;}</style></defs><path class="cls-1" d="M46.83,31.94h0l2.5,6c-.41.1-6.31,3-6.31,3l-3.8-8.66a5.06,5.06,0,0,0-1.78-2.17C41.22,32.94,43.85,32.94,46.83,31.94Z"/><path class="cls-2" d="M41.89,19.89a5.2,5.2,0,0,1-4.48,5.59,5.67,5.67,0,0,1-5.94-4.89,5.17,5.17,0,0,1,4.77-6.3A5.75,5.75,0,0,1,41.89,19.89Z"/><path class="cls-2" d="M37.53,29.14l3.79-.91-7.68.71c-2.74.26-4.12,3-4.15,5.72L29.38,44.9h0A5,5,0,0,0,34.43,50h6.89V45H39.83a3,3,0,0,1-3-3.14Z"/><path class="cls-2" d="M43.06,41l-3.8-8.66a5.66,5.66,0,0,0-5-3.27L33.36,29l8.08-.76a4.84,4.84,0,0,1,5.18,3.13L49.37,38C49,38.05,43.06,41,43.06,41Z"/><path class="cls-2" d="M62.48,19.89A5.18,5.18,0,0,0,67,25.48a5.68,5.68,0,0,0,6-4.89c.54-3.3-1.63-6.22-4.77-6.3A5.75,5.75,0,0,0,62.48,19.89Z"/><path class="cls-2" d="M66.84,29.14l-3.79-.91,7.68.71c2.74.26,4.12,3,4.15,5.72L75,44.9h0a5,5,0,0,1-5,5.07H63.05V45h1.48a3,3,0,0,0,3-3.14Z"/><path class="cls-2" d="M61.31,41l3.8-8.66a5.65,5.65,0,0,1,5-3.27L71,29l-8.09-.76a4.85,4.85,0,0,0-5.18,3.13L55,38C55.41,38.05,61.31,41,61.31,41Z"/><path class="cls-2" d="M57.53,31.94h0L55,38c.41.1,6.31,3,6.31,3l3.8-8.66a5,5,0,0,1,1.77-2.17C63.14,32.94,60.52,32.94,57.53,31.94Z"/><path class="cls-3" d="M58,24.51a5.4,5.4,0,0,1,0,.56,5.7,5.7,0,1,1-11.38-.5A6.13,6.13,0,0,1,49.9,19a5.2,5.2,0,0,1,2.26-.55,3.53,3.53,0,0,1,.46,0,5.81,5.81,0,0,1,5.24,4.79A6.16,6.16,0,0,1,58,24.51Z"/><path class="cls-3" d="M52.27,33.28,49,46.37c-.54,2.08-2.64,3.47-5.26,3.52L39.89,50H34.83l2.84-1.42a5.68,5.68,0,0,0,3.06-4.17l1.13-7c.48-2.59,2.88-4.36,5.92-4.29h.37Z"/><path class="cls-3" d="M68.69,50H60.83a5,5,0,0,1-4.91-3.46l-2.06-9.06a5.66,5.66,0,0,0-4.07-3.89l-1.69-.43,8.93.23a5.61,5.61,0,0,1,5.51,4.41L64,45.26a5.87,5.87,0,0,0,3.66,4.33Z"/><path class="cls-3" d="M90.48,33.09a.69.69,0,0,1-.21.38A6.82,6.82,0,0,1,84.88,36a6.6,6.6,0,0,1-5.37-2.45,8.66,8.66,0,0,1-1.87-5.69,8.61,8.61,0,0,1,1.91-5.72,6.57,6.57,0,0,1,5.37-2.48A6.35,6.35,0,0,1,90.16,22a.67.67,0,0,1,.18.39,3.87,3.87,0,0,1-.6,1.12c-.39.62-.63.93-.71.93s-.32-.18-.68-.54a5.79,5.79,0,0,0-1.24-1A4.27,4.27,0,0,0,85,22.29,4,4,0,0,0,81.55,24a6.31,6.31,0,0,0-1.1,3.8,6.46,6.46,0,0,0,1.09,3.83A4,4,0,0,0,85,33.34a4.38,4.38,0,0,0,2.12-.55,6.44,6.44,0,0,0,1.36-1,3.82,3.82,0,0,1,.63-.55,4.63,4.63,0,0,1,.74.89A5.43,5.43,0,0,1,90.48,33.09Z"/><path class="cls-3" d="M102.55,25.57a1.57,1.57,0,0,1,0,.2,26.69,26.69,0,0,0-.43,4.41q0,.11.27,5l0,.16c0,.22-.1.32-.3.32a8.87,8.87,0,0,0-.93.08c-.41,0-.72.07-.92.07s-.25-.26-.32-.78-.15-.78-.21-.78a2.63,2.63,0,0,0-.61.43,6.72,6.72,0,0,1-1.23.82A3.92,3.92,0,0,1,96.1,36a4.6,4.6,0,0,1-3.65-1.73A5.74,5.74,0,0,1,91,30.37a6,6,0,0,1,1.42-4.1,5,5,0,0,1,3.91-1.69,4.24,4.24,0,0,1,3,1.19l.59.65a.11.11,0,0,0,.07,0s.11-.24.19-.71.18-.7.31-.7a7.25,7.25,0,0,1,1.13.17C102.25,25.34,102.55,25.46,102.55,25.57Zm-2.84,4.66a3.58,3.58,0,0,0-.82-2.35,2.7,2.7,0,0,0-2.2-1.06,2.8,2.8,0,0,0-2.23,1.05,3.49,3.49,0,0,0-.86,2.36,3.43,3.43,0,0,0,.86,2.35,2.82,2.82,0,0,0,2.23,1,2.73,2.73,0,0,0,2.19-1.06A3.54,3.54,0,0,0,99.71,30.23Z"/><path class="cls-3" d="M114.21,35.45c0,.16-.07.25-.22.25l-1.1,0h-1.1c-.13,0-.2-.1-.2-.32,0-.37,0-.92,0-1.66s0-1.31,0-1.68,0-.74,0-1.33,0-1,0-1.34a3.33,3.33,0,0,0-.36-1.8,1.93,1.93,0,0,0-1.66-.62,3.34,3.34,0,0,0-1.55.62c-.7.44-1,.83-1,1.18v6.7c0,.18-.07.28-.21.28l-1.07,0h-1.08c-.15,0-.23-.08-.23-.25,0-.59,0-1.47,0-2.65s0-2.06,0-2.66a17.87,17.87,0,0,0-.51-4.39.5.5,0,0,1,0-.14c0-.08,0-.13.14-.16l1.28-.21,1.26-.19s.07.06.09.18a6.93,6.93,0,0,0,.26,1.39q.57-.45,1.53-1.14a4.38,4.38,0,0,1,2.26-.71A3.13,3.13,0,0,1,113.63,26a5.55,5.55,0,0,1,.57,2.89c0,.23,0,.58,0,1.06s0,.83,0,1.07c0,.5,0,1.25,0,2.24S114.21,35,114.21,35.45Z"/><path class="cls-3" d="M127.07,20.09c0,1,0,2.4-.13,4.32s-.13,3.35-.13,4.31q0,4.41.19,6.67v.15c0,.07-.09.12-.3.14a2.94,2.94,0,0,1-.6,0l-.44,0-.49,0a3.62,3.62,0,0,1-.49,0c-.1,0-.17-.26-.18-.78a2.12,2.12,0,0,0-.09-.79l-.17.15a4.71,4.71,0,0,1-7.22-.07,5.82,5.82,0,0,1-1.38-3.91,6,6,0,0,1,1.39-4,4.73,4.73,0,0,1,3.79-1.7,3.85,3.85,0,0,1,2.45.82l1,.84a.14.14,0,0,0,.09-.15V22.52c0-.25,0-.62,0-1.12s0-.87,0-1.13.06-.27.18-.27c.28,0,.69,0,1.23-.07s1-.07,1.22-.07S127.07,19.94,127.07,20.09Zm-2.79,10.17a3.64,3.64,0,0,0-.83-2.36,2.73,2.73,0,0,0-2.19-1.08A2.83,2.83,0,0,0,119,27.89a3.63,3.63,0,0,0-.84,2.41,3.41,3.41,0,0,0,.88,2.34,2.82,2.82,0,0,0,2.23,1,2.74,2.74,0,0,0,2.21-1.07A3.62,3.62,0,0,0,124.28,30.26Z"/><path class="cls-3" d="M132,22.32c0,.91-.51,1.37-1.53,1.37s-1.55-.46-1.55-1.37a1.28,1.28,0,0,1,.48-1,1.61,1.61,0,0,1,1.07-.38,1.59,1.59,0,0,1,1.08.39A1.28,1.28,0,0,1,132,22.32Zm-.08,3c0,.58,0,1.44-.1,2.6s-.11,2-.11,2.61,0,1.35,0,2.44,0,1.89,0,2.43c0,.15-.07.23-.2.23h-2.18c-.16,0-.24-.15-.24-.46,0-.51,0-1.28,0-2.31s0-1.81,0-2.33,0-1.45-.13-2.62-.13-2-.13-2.61c0-.13.08-.19.24-.19a4.93,4.93,0,0,1,.62.06c.28,0,.49,0,.63,0s.35,0,.63,0a4.89,4.89,0,0,1,.63-.06C131.82,25.13,131.88,25.2,131.88,25.34Z"/><path class="cls-2" d="M147.22,22.12c0,.19-.07.29-.2.29l-4-.14c-.07,2.27-.1,4.09-.1,5.46,0,.86,0,2.14.09,3.86s.09,3,.09,3.85c0,.16-.1.23-.32.23l-.61,0-.63,0-.61,0-.62,0a.25.25,0,0,1-.28-.28c0-.84,0-2.12.11-3.82s.11-3,.11-3.84c0-1.32-.05-3.14-.13-5.46-1.92.12-3.33.18-4.22.18-.09,0-.13,0-.13-.11a2.25,2.25,0,0,1,.1-.58c.08-.33.13-.52.14-.58a10.22,10.22,0,0,1,.16-1.09.2.2,0,0,1,.19-.14h.13c2.64.16,4.38.23,5.22.23s2-.05,3.65-.16c1.15-.08,1.64-.11,1.44-.11.2,0,.3.06.33.2a5.41,5.41,0,0,0,0,1.08,3.15,3.15,0,0,0,0,.45C147.21,21.86,147.22,22,147.22,22.12Z"/><path class="cls-2" d="M154.94,25.19a13.76,13.76,0,0,1-.17,2.23c0,.17-.1.26-.22.26s-.4,0-.71-.05a5.86,5.86,0,0,0-.72-.05c-.94,0-1.54.26-1.8.79a5.32,5.32,0,0,0-.24,2V31.6c0,.41,0,1,0,1.9s.05,1.48.05,1.89c0,.21-.08.31-.25.31l-1.05,0h-1c-.17,0-.26-.09-.26-.28,0-.6,0-1.51,0-2.72s0-2.13,0-2.74a15.25,15.25,0,0,0-.52-4.43,1.05,1.05,0,0,1,0-.13.19.19,0,0,1,.15-.19L149.4,25c.8-.15,1.17-.22,1.11-.22q.18,0,.24.66c0,.44.1.66.2.66s0,0,.06,0l.91-.58a4,4,0,0,1,1-.44,3.83,3.83,0,0,1,1.12-.14Q154.94,25,154.94,25.19Z"/><path class="cls-2" d="M167,25.57a1.57,1.57,0,0,1,0,.2,26.82,26.82,0,0,0-.44,4.41c0,.07.1,1.74.28,5v.16c0,.22-.09.32-.29.32a8.66,8.66,0,0,0-.93.08c-.41,0-.72.07-.92.07s-.25-.26-.33-.78-.14-.78-.21-.78a3,3,0,0,0-.6.43,6.72,6.72,0,0,1-1.23.82,4,4,0,0,1-1.76.44,4.62,4.62,0,0,1-3.66-1.73,5.78,5.78,0,0,1-1.4-3.85,6,6,0,0,1,1.42-4.1,5,5,0,0,1,3.9-1.69,4.26,4.26,0,0,1,3,1.19c.12.15.32.36.59.65a.09.09,0,0,0,.06,0c.05,0,.11-.24.19-.71s.19-.7.32-.7a7.42,7.42,0,0,1,1.13.17C166.72,25.34,167,25.46,167,25.57Zm-2.85,4.66a3.57,3.57,0,0,0-.81-2.35,2.71,2.71,0,0,0-2.2-1.06,2.82,2.82,0,0,0-2.24,1.05,3.54,3.54,0,0,0-.86,2.36,3.48,3.48,0,0,0,.86,2.35,2.84,2.84,0,0,0,2.24,1,2.73,2.73,0,0,0,2.19-1.06A3.53,3.53,0,0,0,164.17,30.23Z"/><path class="cls-2" d="M176.64,25.54a5.35,5.35,0,0,1-.26,1.1c-.17.56-.29.85-.36.85L175,27a2.72,2.72,0,0,0-1.11-.22,3,3,0,0,0-2.29,1,3.47,3.47,0,0,0-.91,2.4,3.36,3.36,0,0,0,.91,2.36,3,3,0,0,0,2.29,1,3.21,3.21,0,0,0,1.48-.37c.48-.25.69-.37.63-.37.1,0,.21.31.33.94A7.3,7.3,0,0,1,176.5,35c0,.23-.43.46-1.3.68a7.13,7.13,0,0,1-1.62.28,5.07,5.07,0,0,1-3.89-1.72,6,6,0,0,1,0-8,5.07,5.07,0,0,1,3.89-1.69,5.33,5.33,0,0,1,2.86.79C176.56,25.4,176.64,25.48,176.64,25.54Z"/><path class="cls-2" d="M189,28a3.8,3.8,0,0,1-2.69,3.89c0,.38.74,1.56,2.23,3.55,0,.11-.37.19-1.11.22-.49,0-.86,0-1.11,0-.53,0-.86-.11-1-.34-.35-.59-.9-1.46-1.66-2.6a6.38,6.38,0,0,0-2.42-.17h-.43v2.76c0,.23-.09.35-.25.35h-2.11c-.17,0-.25-.15-.25-.44V28.31c0-.9,0-2.26-.1-4.07s-.11-3.17-.11-4.08a.2.2,0,0,1,.21-.22l1.12-.05a6.56,6.56,0,0,0,.66-.08,6.29,6.29,0,0,1,.65,0q.15,0,.15.27c0,.4,0,1-.05,1.8s-.06,1.39-.06,1.79V26.5c0,.16,0,.24.1.24l.81-.66a5.91,5.91,0,0,1,3.57-1.45,4.14,4.14,0,0,1,2.7.85A3.09,3.09,0,0,1,189,28Zm-2.69.53c0-1.07-.69-1.6-2.07-1.6-1,0-2.18.69-3.47,2v1.67a12.33,12.33,0,0,0,2.19.17,4.71,4.71,0,0,0,2.21-.49A2,2,0,0,0,186.32,28.54Z"/><path class="cls-4" d="M101.08,39.76a1.84,1.84,0,0,1-.43,1.28,1.58,1.58,0,0,1-1.24.49h-.58c-.27,0-.46,0-.59,0s-.11,0-.11.14,0,.3,0,.54,0,.42,0,.54a.05.05,0,0,1-.06.06,1,1,0,0,1-.22,0h-.57c-.06,0-.09,0-.09-.11,0-.24,0-.62,0-1.12s0-.87,0-1.12c0-.71,0-1.47-.08-2.28v0c0-.05,0-.08.09-.08h1.59l.48,0a1.62,1.62,0,0,1,1.24.51A1.74,1.74,0,0,1,101.08,39.76Zm-.86.05A1.19,1.19,0,0,0,100,39a1,1,0,0,0-.79-.32l-.56,0a1.83,1.83,0,0,0-.47,0,9.36,9.36,0,0,0,0,1.17c0,.1,0,.24,0,.43s0,.34,0,.43,0,0,.08,0a8.59,8.59,0,0,0,1,0,1,1,0,0,0,.75-.3A1.14,1.14,0,0,0,100.22,39.81Z"/><path class="cls-4" d="M103.52,39.57a4.61,4.61,0,0,1,0,.68c0,.06,0,.08-.07.08h-.22l-.22,0c-.28,0-.47.08-.55.24a1.86,1.86,0,0,0-.07.61v.38c0,.12,0,.32,0,.58s0,.45,0,.57,0,.1-.08.1h-.64c-.05,0-.07,0-.07-.09s0-.46,0-.83V41a4.93,4.93,0,0,0-.15-1.35.08.08,0,0,1,0,0,.05.05,0,0,1,0-.06l.36,0,.34-.07s.06.07.07.2,0,.2.06.2h0l.28-.18a1.23,1.23,0,0,1,.31-.14,1.09,1.09,0,0,1,.34,0C103.43,39.5,103.52,39.53,103.52,39.57Z"/><path class="cls-4" d="M107,41.11a1.74,1.74,0,0,1-.47,1.22,1.61,1.61,0,0,1-2.37,0,1.82,1.82,0,0,1,0-2.42,1.57,1.57,0,0,1,1.19-.51,1.55,1.55,0,0,1,1.18.51A1.69,1.69,0,0,1,107,41.11Zm-.72,0a1.05,1.05,0,0,0-.26-.71.82.82,0,0,0-.67-.31.86.86,0,0,0-.68.31,1,1,0,0,0-.25.71,1.06,1.06,0,0,0,.25.71.87.87,0,0,0,.68.31.84.84,0,0,0,.67-.31A1.07,1.07,0,0,0,106.26,41.12Z"/><path class="cls-4" d="M108.32,39.61c0,.15,0,.38,0,.68s0,.52,0,.68,0,.41,0,.74v.75a1.15,1.15,0,0,1-.88,1.24,1.41,1.41,0,0,1-.37.07s-.06,0-.07-.07a.32.32,0,0,1,0-.14c0-.09,0-.12,0-.11a1.15,1.15,0,0,0,0-.14c0-.06,0-.1,0-.13a.07.07,0,0,1,0-.07.93.93,0,0,0,.43-.15.65.65,0,0,0,.12-.46c0-.17,0-.41,0-.73s0-.57,0-.74a13.41,13.41,0,0,0-.08-1.35v0s0,0,.06-.06l.37,0,.4,0S108.32,39.55,108.32,39.61Zm.05-.92c0,.28-.16.41-.48.41a.52.52,0,0,1-.33-.1.35.35,0,0,1-.14-.31.37.37,0,0,1,.14-.31.55.55,0,0,1,.66,0A.37.37,0,0,1,108.37,38.69Z"/><path class="cls-4" d="M111.88,40.94a.33.33,0,0,1-.21.34c-.1,0-.81.1-2.11.2a.77.77,0,0,0,.33.51,1,1,0,0,0,.58.2,1.54,1.54,0,0,0,1-.35l.11-.08h0a2.14,2.14,0,0,0,.12.24,1.35,1.35,0,0,1,.12.25.18.18,0,0,1,0,.07,1.68,1.68,0,0,1-1.29.53,1.62,1.62,0,0,1-1.73-1.72,1.83,1.83,0,0,1,.45-1.23,1.51,1.51,0,0,1,1.17-.54,1.38,1.38,0,0,1,1.06.47A1.6,1.6,0,0,1,111.88,40.94Zm-.81-.21a.69.69,0,0,0-.22-.5.72.72,0,0,0-.5-.21.75.75,0,0,0-.56.25.79.79,0,0,0-.24.56c0,.05,0,.07.12.07a8.27,8.27,0,0,0,1.21-.1C111,40.78,111.07,40.76,111.07,40.73Z"/><path class="cls-4" d="M114.74,39.68a2,2,0,0,1-.08.34c0,.17-.09.25-.11.25l-.31-.13a.77.77,0,0,0-.34-.07.9.9,0,0,0-.7.31,1.09,1.09,0,0,0-.28.73,1,1,0,0,0,.28.72.91.91,0,0,0,.7.31.93.93,0,0,0,.45-.11.75.75,0,0,0,.2-.11s.06.09.09.28a2.11,2.11,0,0,1,.06.36c0,.07-.14.14-.4.21a2.05,2.05,0,0,1-.5.08,1.54,1.54,0,0,1-1.18-.52,1.83,1.83,0,0,1,0-2.44,1.53,1.53,0,0,1,1.19-.52,1.68,1.68,0,0,1,.87.24S114.74,39.66,114.74,39.68Z"/><path class="cls-4" d="M117.06,42.14s0,.12,0,.21,0,.17,0,.21,0,.06,0,.07,0,0-.06,0a2.17,2.17,0,0,1-.88.13c-.53,0-.8-.24-.8-.72,0-.19,0-.48,0-.87s0-.68,0-.87a.14.14,0,0,0-.14-.15h-.25s-.07-.11-.07-.28a1.49,1.49,0,0,1,0-.21c0-.06,0-.09.1-.1h.17c.11,0,.16,0,.16-.14s0-.23,0-.42,0-.32,0-.42,0-.25.1-.25l.64.11s.07,0,.07.07a4.23,4.23,0,0,1,0,.45c0,.2,0,.35,0,.45s0,.1.09.1H117s.06,0,.06,0,0,.07,0,.13a1.15,1.15,0,0,0,0,.14,1.1,1.1,0,0,0,0,.16v.15s0,.07-.1.07l-.41,0-.41,0s0,.06,0,.19,0,.39,0,.68v.51a1,1,0,0,0,.06.41.33.33,0,0,0,.33.17,1.45,1.45,0,0,0,.31,0,1.73,1.73,0,0,1,.31-.05S117.06,42.1,117.06,42.14Z"/><path class="cls-4" d="M122.67,41.13a1.77,1.77,0,0,1-.42,1.17,1.41,1.41,0,0,1-1.11.53,1.35,1.35,0,0,1-.78-.22l-.27-.23s0,.07,0,.2,0,.2-.06.2h-.72s0,0,0-.05v-.06c0-.36,0-1.06,0-2.08,0-.42,0-1,0-1.85,0-.52,0-.75,0-.68a.09.09,0,0,1,.09-.1h.37l.19,0,.2,0s0,0,0,.08a2.58,2.58,0,0,1,0,.35c0,.16,0,.28,0,.36s0,.3,0,.53,0,.42,0,.54,0,.13,0,.13,0,0,.06,0a1.21,1.21,0,0,1,1-.47,1.41,1.41,0,0,1,1.14.53A1.87,1.87,0,0,1,122.67,41.13Zm-.77,0a1.09,1.09,0,0,0-.26-.71.83.83,0,0,0-.67-.33.87.87,0,0,0-.68.32,1.07,1.07,0,0,0-.26.72,1,1,0,0,0,.26.73.84.84,0,0,0,.69.32.83.83,0,0,0,.67-.33A1.12,1.12,0,0,0,121.9,41.09Z"/><path class="cls-4" d="M126,40.4a4.23,4.23,0,0,1,0,.69,10.63,10.63,0,0,1-.85,1.34,12.63,12.63,0,0,1-1,1.32c-.09.09-.38.13-.87.13l-.12,0a2,2,0,0,1-.11-.25,1.25,1.25,0,0,1-.09-.27c0-.05.06-.08.18-.08a1,1,0,0,0,.56-.11.73.73,0,0,0,.18-.23.61.61,0,0,0,.13-.27,3.08,3.08,0,0,0-.5-.71,5.13,5.13,0,0,1-.58-.85,2.71,2.71,0,0,1,0-.66c0-.09,0-.22,0-.39v-.4s0-.07.08-.07h.33l.32,0s0,0,0,.07,0,.16,0,.28,0,.23,0,.29a4.67,4.67,0,0,0,0,.62,2.5,2.5,0,0,0,.37.64c.23.35.38.52.43.52s.16-.17.37-.51a2.68,2.68,0,0,0,.33-.62,4.28,4.28,0,0,0,0-.62c0-.07,0-.17,0-.29a1.8,1.8,0,0,1,0-.29c0-.06,0-.09.05-.09h.33l.33,0C126,39.57,126,39.85,126,40.4Z"/><path class="cls-4" d="M131,38.34a3.84,3.84,0,0,0-.19.34,2.7,2.7,0,0,1-.13.3.05.05,0,0,1,0,0l-.33-.12a1.71,1.71,0,0,0-.55-.12c-.42,0-.63.18-.63.55,0,.2.15.38.44.53l.82.44a1.17,1.17,0,0,1,.44,1,1.4,1.4,0,0,1-.6,1.2,2.16,2.16,0,0,1-1.33.4c-.25,0-.38,0-.4-.08s0-.22-.06-.38l-.09-.31s0,0,0-.06,0,0,.06,0h.25l.25,0c.7,0,1-.23,1-.68a.69.69,0,0,0-.42-.58c-.52-.29-.78-.45-.79-.46a1.12,1.12,0,0,1-.43-.93,1.36,1.36,0,0,1,.41-1,1.52,1.52,0,0,1,1.05-.36,3.19,3.19,0,0,1,.63.08,2,2,0,0,1,.58.24Z"/><path class="cls-4" d="M134.56,41.11a1.74,1.74,0,0,1-.47,1.22,1.61,1.61,0,0,1-2.37,0,1.82,1.82,0,0,1,0-2.42,1.57,1.57,0,0,1,1.19-.51,1.55,1.55,0,0,1,1.18.51A1.69,1.69,0,0,1,134.56,41.11Zm-.72,0a1.05,1.05,0,0,0-.26-.71.84.84,0,0,0-.67-.31.86.86,0,0,0-.68.31,1,1,0,0,0-.26.71,1.07,1.07,0,0,0,.26.71.87.87,0,0,0,.68.31.84.84,0,0,0,.67-.31A1.07,1.07,0,0,0,133.84,41.12Z"/><path class="cls-4" d="M136.79,38.4s0,.05-.06.05l-.33,0a.47.47,0,0,0-.29.14c-.12.12-.17.42-.17.92h.72c.05,0,.08,0,.08.06s0,.16,0,.28v.29s0,.06-.07.06H136v1c0,.16,0,.4,0,.73s0,.56,0,.72,0,.09-.07.09h-.62c-.06,0-.09,0-.09-.11V40.32q0-.09-.21-.09a.61.61,0,0,1-.24,0,.89.89,0,0,1,0-.13v-.22a2.2,2.2,0,0,1,0-.23s.14-.08.43-.09c0-.15,0-.26,0-.36a1.41,1.41,0,0,1,.22-.88,1.22,1.22,0,0,1,.55-.39,1.84,1.84,0,0,1,.69-.13.05.05,0,0,1,.05,0l.06.28C136.77,38.3,136.79,38.4,136.79,38.4Z"/><path class="cls-4" d="M139,42.14a1.79,1.79,0,0,1,0,.21c0,.1,0,.17,0,.21a.35.35,0,0,1,0,.07s0,0-.07,0a2.14,2.14,0,0,1-.88.13c-.53,0-.79-.24-.79-.72,0-.19,0-.48,0-.87s0-.68,0-.87a.14.14,0,0,0-.14-.15h-.25c-.05,0-.07-.11-.07-.28a1.48,1.48,0,0,1,0-.21.11.11,0,0,1,.11-.1h.16c.11,0,.16,0,.16-.14s0-.23,0-.42,0-.32,0-.42,0-.25.1-.25l.64.11s.08,0,.08.07,0,.25,0,.45,0,.35,0,.45,0,.1.1.1h.81s.06,0,.06,0a.72.72,0,0,1,0,.13.82.82,0,0,0,0,.14v.31s0,.07-.09.07l-.41,0-.42,0s0,.06,0,.19,0,.39,0,.68v.51A1,1,0,0,0,138,42a.35.35,0,0,0,.34.17,1.52,1.52,0,0,0,.31,0l.3-.05S139,42.1,139,42.14Z"/><path class="cls-4" d="M144.44,42.09s0,.08,0,.15,0,.14,0,.16,0,.2,0,.36a.08.08,0,0,1-.09.06l-.13,0a10,10,0,0,0-1.29-.06l-.75,0h-.75c-.08,0-.11,0-.11-.1,0-.25,0-.63,0-1.14s0-.9,0-1.15,0-.74,0-1.45c0-.18,0-.45,0-.81v0s0-.08.09-.08l.71,0h1.4l.68,0c.11,0,.17,0,.18.1,0,.3.07.49.07.56a.07.07,0,0,1-.08.08l-.87,0c-.4,0-.69,0-.89,0a.54.54,0,0,0-.35.08c-.05,0-.07.17-.07.37v.51a1.11,1.11,0,0,0,0,.24c0,.07.08.1.17.1h.24l1.19,0,.49,0s.08,0,.08.06a2.75,2.75,0,0,1,0,.34,2.33,2.33,0,0,0,0,.33s0,.07-.11.07l-.3,0c-.13,0-.41,0-.86,0s-.61,0-.71,0a.15.15,0,0,0-.16.14s0,.07,0,.26v.5c0,.24,0,.39.11.45s.19.07.42.07H143c.15,0,.6,0,1.33-.09h.06S144.44,42,144.44,42.09Z"/><path class="cls-4" d="M148,42.7s0,.08-.06.08h-.67s-.07,0-.07-.1,0-.28,0-.51,0-.39,0-.51v-.81a1.05,1.05,0,0,0-.11-.55.59.59,0,0,0-.51-.19,1,1,0,0,0-.47.19c-.22.14-.32.25-.32.36v2c0,.06,0,.09-.07.09h-.65c-.05,0-.07,0-.07-.08s0-.45,0-.81v-.81a5.52,5.52,0,0,0-.15-1.33.11.11,0,0,1,0-.05s0,0,0,0l.39-.06.38-.06s0,0,0,.06a2,2,0,0,0,.07.42l.47-.35a1.37,1.37,0,0,1,.69-.21,1,1,0,0,1,.88.37,1.74,1.74,0,0,1,.17.88V41c0,.15,0,.26,0,.33s0,.38,0,.68Z"/><path class="cls-4" d="M150.51,42.14s0,.12,0,.21,0,.17,0,.21,0,.06,0,.07,0,0-.06,0a2.17,2.17,0,0,1-.88.13c-.53,0-.8-.24-.8-.72,0-.19,0-.48,0-.87s0-.68,0-.87a.14.14,0,0,0-.14-.15h-.25c-.05,0-.07-.11-.07-.28s0-.14,0-.21a.12.12,0,0,1,.11-.1h.17c.1,0,.16,0,.16-.14s0-.23,0-.42,0-.32,0-.42,0-.25.1-.25l.64.11s.07,0,.07.07a4.23,4.23,0,0,1,0,.45c0,.2,0,.35,0,.45s0,.1.09.1h.82s.06,0,.06,0a1.05,1.05,0,0,1,0,.13c0,.06,0,.11,0,.14a1.1,1.1,0,0,0,0,.16v.15s0,.07-.1.07l-.41,0-.41,0s0,.06,0,.19,0,.39,0,.68v.51a1,1,0,0,0,.06.41.33.33,0,0,0,.33.17,1.45,1.45,0,0,0,.31,0,1.73,1.73,0,0,1,.31-.05S150.51,42.1,150.51,42.14Z"/><path class="cls-4" d="M153.88,40.94a.33.33,0,0,1-.22.34c-.1,0-.8.1-2.11.2a.77.77,0,0,0,.33.51,1,1,0,0,0,.59.2,1.54,1.54,0,0,0,1-.35l.11-.08h0l.13.24a1.35,1.35,0,0,1,.12.25.15.15,0,0,1-.06.07,1.86,1.86,0,0,1-2.54.06,1.7,1.7,0,0,1-.47-1.25,1.83,1.83,0,0,1,.45-1.23,1.47,1.47,0,0,1,1.16-.54,1.4,1.4,0,0,1,1.07.47A1.6,1.6,0,0,1,153.88,40.94Zm-.81-.21a.7.7,0,0,0-.23-.5.69.69,0,0,0-.5-.21.73.73,0,0,0-.55.25.76.76,0,0,0-.25.56c0,.05,0,.07.13.07a8.26,8.26,0,0,0,1.2-.1C153,40.78,153.07,40.76,153.07,40.73Z"/><path class="cls-4" d="M156.3,39.57a3.56,3.56,0,0,1-.05.68c0,.06,0,.08-.07.08H156l-.22,0c-.29,0-.47.08-.55.24a1.62,1.62,0,0,0-.07.61v.38c0,.12,0,.32,0,.58s0,.45,0,.57,0,.1-.08.1h-.64c-.05,0-.08,0-.08-.09s0-.46,0-.83,0-.64,0-.83a4.53,4.53,0,0,0-.16-1.35v0a.05.05,0,0,1,0-.06l.35,0,.34-.07s.06.07.08.2,0,.2.06.2h0l.28-.18a1.48,1.48,0,0,1,.32-.14,1.05,1.05,0,0,1,.34,0C156.21,39.5,156.3,39.53,156.3,39.57Z"/><path class="cls-4" d="M160.08,41.13a1.79,1.79,0,0,1-.43,1.2,1.47,1.47,0,0,1-1.14.53,1.15,1.15,0,0,1-.74-.26l-.28-.27a.06.06,0,0,0,0,.06v1.34c0,.07,0,.11-.08.11a5.72,5.72,0,0,1-.61,0c-.06,0-.08,0-.08-.09v-1.3c0-.59,0-1,0-1.31a10.11,10.11,0,0,0-.1-1.5.18.18,0,0,1,0-.06.05.05,0,0,1,0-.05l.37,0,.38-.06s.06.06.07.2a2.45,2.45,0,0,1,0,.27.08.08,0,0,0,0,0l.06,0a1.32,1.32,0,0,1,1-.49,1.47,1.47,0,0,1,1.14.53A1.77,1.77,0,0,1,160.08,41.13Zm-.79,0a1.12,1.12,0,0,0-.26-.72.83.83,0,0,0-.67-.33.78.78,0,0,0-.65.34,1.17,1.17,0,0,0-.23.72,1.16,1.16,0,0,0,.24.72.81.81,0,0,0,1.32,0A1.16,1.16,0,0,0,159.29,41.12Z"/><path class="cls-4" d="M162.56,39.57a4.61,4.61,0,0,1-.05.68c0,.06,0,.08-.07.08h-.22l-.22,0c-.28,0-.47.08-.55.24a1.86,1.86,0,0,0-.07.61v.38c0,.12,0,.32,0,.58s0,.45,0,.57,0,.1-.08.1h-.64c-.05,0-.07,0-.07-.09v-.83c0-.37,0-.64,0-.83a4.93,4.93,0,0,0-.15-1.35.08.08,0,0,1,0,0,.05.05,0,0,1,0-.06l.36,0,.34-.07s.06.07.07.2,0,.2.06.2h0l.28-.18a1.23,1.23,0,0,1,.31-.14,1.09,1.09,0,0,1,.34,0C162.47,39.5,162.56,39.53,162.56,39.57Z"/><path class="cls-4" d="M163.82,38.7c0,.28-.16.42-.47.42s-.47-.14-.47-.42a.4.4,0,0,1,.14-.31.51.51,0,0,1,.66,0A.4.4,0,0,1,163.82,38.7Zm0,.92c0,.18,0,.44,0,.79s0,.62,0,.8,0,.41,0,.74,0,.58,0,.74,0,.07-.06.07H163s-.07,0-.07-.14,0-.39,0-.7,0-.55,0-.71,0-.45,0-.8,0-.62,0-.8,0,0,.07,0h.19l.19,0,.19,0h.2S163.79,39.58,163.79,39.62Z"/><path class="cls-4" d="M166.06,41.72a1,1,0,0,1-.4.81,1.44,1.44,0,0,1-.9.28h-.23s-.06-.07-.06-.16,0-.13,0-.23,0-.17,0-.22,0,0,.06-.06h.23c.43,0,.65-.13.65-.39s-.1-.24-.29-.35a3.57,3.57,0,0,1-.52-.31.79.79,0,0,1-.29-.63,1,1,0,0,1,.39-.8,1.43,1.43,0,0,1,.88-.25.08.08,0,0,1,.07,0s0,.13.08.28a1.75,1.75,0,0,1,.06.28s0,0-.06.05l-.44,0c-.17,0-.26.15-.26.29s.09.21.27.31a2.62,2.62,0,0,1,.52.33A.88.88,0,0,1,166.06,41.72Z"/><path class="cls-4" d="M169.43,40.94a.33.33,0,0,1-.21.34c-.1,0-.8.1-2.11.2a.77.77,0,0,0,.33.51,1,1,0,0,0,.59.2,1.53,1.53,0,0,0,1-.35l.11-.08h0s.05.09.13.24a1.78,1.78,0,0,1,.11.25.11.11,0,0,1-.05.07,1.71,1.71,0,0,1-3-1.19,1.83,1.83,0,0,1,.45-1.23,1.47,1.47,0,0,1,1.16-.54,1.42,1.42,0,0,1,1.07.47A1.59,1.59,0,0,1,169.43,40.94Zm-.81-.21a.69.69,0,0,0-.22-.5.7.7,0,0,0-.5-.21.75.75,0,0,0-.56.25.79.79,0,0,0-.24.56c0,.05,0,.07.12.07a8.27,8.27,0,0,0,1.21-.1C168.56,40.78,168.62,40.76,168.62,40.73Z"/></svg>