<?xml version="1.0" encoding="utf-8"?>
<!-- Generator: Adobe Illustrator 26.0.1, SVG Export Plug-In . SVG Version: 6.00 Build 0)  -->
<svg version="1.1" id="Layer_1" xmlns="http://www.w3.org/2000/svg" xmlns:xlink="http://www.w3.org/1999/xlink" x="0px" y="0px"
	 viewBox="0 0 38.94 38.94" style="enable-background:new 0 0 38.94 38.94;" xml:space="preserve">
<style type="text/css">
	.st0{fill:#FFD600;}
	.st1{fill:#00A2FF;}
	.st2{fill:#6F6F6F;}
</style>
<g>
	<path class="st0" d="M12.25,10.89c0.1,2.03-1.28,3.73-3.14,3.92c-1.93,0.2-3.82-1.28-4.17-3.43C4.55,9.06,6.08,7.01,8.28,6.95
		C10.39,6.9,12.14,8.72,12.25,10.89z"/>
	<path class="st0" d="M9.19,17.37l2.65-0.64l-5.39,0.5c-1.92,0.18-2.89,2.13-2.91,4.02l-0.08,7.18l0,0
		c-0.01,1.96,1.58,3.56,3.54,3.56h4.83v-3.46h-1.04c-1.2,0-2.15-1.01-2.09-2.2L9.19,17.37z"/>
	<path class="st0" d="M13.07,25.66l-2.66-6.08c-0.55-1.31-1.93-2.21-3.5-2.29l-0.64-0.03l5.67-0.54c1.54-0.24,3,0.68,3.63,2.2
		l1.93,4.63C17.21,23.63,13.07,25.66,13.07,25.66z"/>
	<path class="st0" d="M15.72,19.34c0.01,0,0.02,0,0.02-0.01l1.76,4.22c-0.29,0.07-4.43,2.1-4.43,2.1l-2.66-6.08
		c-0.25-0.61-0.69-1.13-1.25-1.52C11.78,20.04,13.62,20.04,15.72,19.34z"/>
	<path class="st0" d="M26.69,10.89c-0.1,2.03,1.28,3.73,3.14,3.92c1.93,0.2,3.82-1.28,4.17-3.43c0.38-2.31-1.14-4.36-3.34-4.42
		C28.55,6.9,26.8,8.72,26.69,10.89z"/>
	<path class="st0" d="M29.75,17.37l-2.65-0.64l5.39,0.5c1.92,0.18,2.89,2.13,2.91,4.02l0.08,7.18l0,0c0.01,1.96-1.58,3.56-3.54,3.56
		H27.1v-3.46h1.04c1.2,0,2.15-1.01,2.09-2.2L29.75,17.37z"/>
	<path class="st0" d="M25.87,25.66l2.66-6.08c0.55-1.31,1.93-2.21,3.5-2.29l0.64-0.03l-5.67-0.54c-1.54-0.24-3,0.68-3.63,2.2
		l-1.93,4.63C21.73,23.63,25.87,25.66,25.87,25.66z"/>
	<path class="st0" d="M23.22,19.34c-0.01,0-0.02,0-0.02-0.01l-1.76,4.22c0.29,0.07,4.43,2.1,4.43,2.1l2.66-6.08
		c0.25-0.61,0.69-1.13,1.25-1.52C27.16,20.04,25.32,20.04,23.22,19.34z"/>
	<path class="st1" d="M23.54,14.12c0,0.13-0.01,0.26-0.02,0.4c-0.2,2.26-2.02,3.95-4.11,3.89c-2.12-0.06-3.87-1.91-3.88-4.24
		c-0.01-1.74,0.94-3.25,2.33-3.93c0.48-0.24,1.02-0.38,1.58-0.39c0.11,0,0.22,0,0.33,0.01c1.87,0.11,3.31,1.55,3.68,3.36
		C23.51,13.51,23.54,13.81,23.54,14.12z"/>
	<g>
		<path class="st1" d="M19.53,20.28l-2.31,9.18c-0.38,1.46-1.86,2.44-3.69,2.47l-2.68,0.06h-0.03H7.3l1.99-1
			c1.14-0.57,1.94-1.66,2.15-2.93l0.79-4.88c0.33-1.82,2.02-3.06,4.15-3.01l0.23,0l0.03,0L19.53,20.28z"/>
		<path class="st1" d="M31.05,31.99h-5.51c-1.64,0.03-3.03-1-3.45-2.43l-1.45-6.35c-0.39-1.34-1.48-2.39-2.86-2.73l-1.18-0.3
			l6.26,0.16c1.95,0.05,3.5,1.32,3.86,3.09l1.05,5.25c0.28,1.39,1.25,2.54,2.57,3.04L31.05,31.99z"/>
	</g>
</g>
</svg>
