<svg xmlns="http://www.w3.org/2000/svg" xmlns:xlink="http://www.w3.org/1999/xlink" version="1.1" id="Layer_1" x="0px" y="0px" viewBox="0 0 221.39 64.26" style="enable-background:new 0 0 221.39 64.26;" xml:space="preserve">
<style type="text/css">
	.st0{fill:#FFD600;}
	.st1{fill:#00A2FF;}
	.st2{fill:#6F6F6F;}
</style>
<g>
	<g>
		<path class="st0" d="M41.89,19.89c0.14,2.89-1.83,5.32-4.47,5.59c-2.75,0.28-5.44-1.82-5.95-4.89c-0.55-3.29,1.63-6.22,4.77-6.3    C39.25,14.21,41.74,16.81,41.89,19.89z"/>
		<path class="st0" d="M37.53,29.14l3.78-0.91l-7.68,0.71c-2.74,0.26-4.12,3.03-4.15,5.72L29.38,44.9l0,0    c-0.02,2.8,2.25,5.07,5.05,5.07h6.89v-4.94h-1.48c-1.71,0-3.07-1.43-2.98-3.14L37.53,29.14z"/>
		<path class="st0" d="M43.06,40.95l-3.79-8.66c-0.78-1.86-2.75-3.15-4.98-3.27l-0.92-0.05l8.09-0.77c2.2-0.35,4.28,0.97,5.18,3.14    l2.75,6.6C48.96,38.05,43.06,40.95,43.06,40.95z"/>
		<path class="st0" d="M46.83,31.94c0.01,0,0.02-0.01,0.03-0.01l2.5,6.02c-0.41,0.1-6.31,3-6.31,3l-3.79-8.66    c-0.36-0.87-0.99-1.61-1.78-2.17C41.22,32.94,43.85,32.94,46.83,31.94z"/>
		<path class="st0" d="M62.48,19.89c-0.14,2.89,1.83,5.32,4.47,5.59c2.75,0.28,5.44-1.82,5.95-4.89c0.55-3.29-1.63-6.22-4.77-6.3    C65.12,14.21,62.63,16.81,62.48,19.89z"/>
		<path class="st0" d="M66.84,29.14l-3.78-0.91l7.68,0.71c2.74,0.26,4.12,3.03,4.15,5.72l0.11,10.24l0,0    c0.02,2.8-2.25,5.07-5.05,5.07h-6.89v-4.94h1.48c1.71,0,3.07-1.43,2.98-3.14L66.84,29.14z"/>
		<path class="st0" d="M61.31,40.95l3.79-8.66c0.78-1.86,2.75-3.15,4.98-3.27l0.92-0.05l-8.09-0.77c-2.2-0.35-4.28,0.97-5.18,3.14    L55,37.95C55.41,38.05,61.31,40.95,61.31,40.95z"/>
		<path class="st0" d="M57.53,31.94c-0.01,0-0.02-0.01-0.03-0.01L55,37.95c0.41,0.1,6.31,3,6.31,3l3.79-8.66    c0.36-0.87,0.99-1.61,1.78-2.17C63.14,32.94,60.52,32.94,57.53,31.94z"/>
		<path class="st1" d="M57.99,24.51c0,0.19-0.01,0.38-0.02,0.57c-0.28,3.22-2.88,5.63-5.85,5.55c-3.02-0.09-5.51-2.72-5.53-6.05    c-0.01-2.48,1.34-4.63,3.32-5.6c0.69-0.34,1.45-0.54,2.26-0.56c0.15,0,0.31,0,0.46,0.01c2.66,0.16,4.72,2.21,5.24,4.79    C57.95,23.63,57.99,24.06,57.99,24.51z"/>
		<g>
			<path class="st1" d="M52.27,33.28l-3.3,13.09c-0.55,2.08-2.65,3.47-5.26,3.52l-3.82,0.08h-0.05h-5.01l2.84-1.42     c1.63-0.82,2.77-2.37,3.06-4.17l1.13-6.96c0.48-2.59,2.88-4.36,5.92-4.3l0.33,0.01l0.04,0L52.27,33.28z"/>
			<path class="st1" d="M68.69,49.97h-7.85c-2.34,0.04-4.32-1.42-4.91-3.47l-2.06-9.06c-0.56-1.91-2.11-3.4-4.07-3.89l-1.68-0.42     l8.93,0.23c2.78,0.07,4.99,1.89,5.51,4.41l1.49,7.49c0.39,1.98,1.78,3.62,3.66,4.34L68.69,49.97z"/>
		</g>
	</g>
	<g>
		<g>
			<g>
				<path class="st0" d="M90.48,33.09c0,0.09-0.07,0.22-0.21,0.38C88.82,35.16,87.02,36,84.88,36c-2.23,0-4.02-0.82-5.36-2.45      c-1.25-1.52-1.88-3.42-1.88-5.7s0.64-4.18,1.91-5.72c1.35-1.65,3.15-2.48,5.37-2.48c2.26,0,4,0.76,5.24,2.29      c0.12,0.16,0.18,0.29,0.18,0.39c0,0.13-0.2,0.5-0.59,1.12c-0.39,0.62-0.63,0.93-0.71,0.93c-0.1,0-0.32-0.18-0.68-0.55      c-0.44-0.45-0.85-0.78-1.24-1.01c-0.64-0.36-1.35-0.55-2.12-0.55c-1.47,0-2.62,0.56-3.44,1.69c-0.73,1.01-1.09,2.27-1.09,3.8      c0,1.53,0.36,2.8,1.08,3.83c0.82,1.15,1.96,1.73,3.43,1.73c0.73,0,1.43-0.18,2.11-0.55c0.45-0.24,0.9-0.58,1.36-1.02      c0.39-0.36,0.6-0.55,0.64-0.55c0.04,0,0.29,0.3,0.74,0.89C90.26,32.71,90.48,33.03,90.48,33.09z"/>
				<path class="st0" d="M102.55,25.57c0,0.03-0.01,0.1-0.03,0.2c-0.29,1.71-0.44,3.18-0.44,4.41c0,0.07,0.09,1.75,0.28,5.01      l0.01,0.16c0.01,0.22-0.09,0.32-0.3,0.32c-0.2,0-0.51,0.02-0.93,0.07c-0.41,0.05-0.72,0.07-0.92,0.07      c-0.14,0-0.25-0.26-0.32-0.78c-0.07-0.52-0.15-0.78-0.21-0.78c-0.04,0-0.25,0.15-0.6,0.44c-0.44,0.36-0.85,0.63-1.23,0.82      c-0.59,0.3-1.18,0.45-1.76,0.45c-1.44,0-2.66-0.58-3.65-1.73c-0.94-1.1-1.41-2.39-1.41-3.85c0-1.65,0.47-3.02,1.42-4.1      c0.99-1.12,2.29-1.69,3.91-1.69c1.14,0,2.13,0.39,2.98,1.18c0.13,0.15,0.32,0.36,0.59,0.65c0.02,0.02,0.04,0.03,0.07,0.03      c0.04,0,0.11-0.23,0.19-0.7c0.08-0.47,0.19-0.7,0.31-0.7c0.2,0,0.58,0.06,1.13,0.17C102.25,25.34,102.55,25.46,102.55,25.57z       M99.71,30.23c0-0.92-0.27-1.7-0.82-2.36c-0.57-0.71-1.31-1.06-2.2-1.06s-1.64,0.35-2.23,1.05c-0.57,0.67-0.86,1.46-0.86,2.37      c0,0.9,0.29,1.68,0.86,2.35c0.6,0.69,1.34,1.04,2.23,1.04c0.87,0,1.6-0.35,2.19-1.06C99.43,31.9,99.71,31.12,99.71,30.23z"/>
				<path class="st0" d="M114.21,35.45c0,0.16-0.07,0.25-0.22,0.25c-0.25,0-0.61,0-1.1-0.01c-0.49-0.01-0.85-0.01-1.1-0.01      c-0.13,0-0.2-0.11-0.2-0.32c0-0.36,0.01-0.92,0.03-1.66c0.02-0.74,0.03-1.3,0.03-1.68c0-0.3,0-0.74-0.01-1.33      c-0.01-0.59-0.01-1.04-0.01-1.33c0-0.85-0.12-1.45-0.37-1.8c-0.3-0.42-0.85-0.63-1.65-0.63c-0.37,0-0.89,0.21-1.55,0.63      c-0.7,0.44-1.05,0.83-1.05,1.17v6.7c0,0.19-0.07,0.28-0.21,0.28c-0.24,0-0.6,0-1.07-0.01c-0.48-0.01-0.83-0.01-1.07-0.01      c-0.16,0-0.23-0.09-0.23-0.26c0-0.59,0.01-1.47,0.03-2.65c0.02-1.18,0.03-2.06,0.03-2.66c0-1.59-0.17-3.05-0.5-4.39      c-0.02-0.07-0.03-0.12-0.03-0.15c0-0.07,0.05-0.13,0.15-0.16c0.05-0.01,0.48-0.08,1.28-0.21c0.8-0.13,1.22-0.2,1.26-0.2      c0.04,0,0.07,0.06,0.09,0.18c0.04,0.46,0.12,0.93,0.26,1.4c0.39-0.31,0.9-0.68,1.53-1.14c0.78-0.48,1.54-0.71,2.27-0.71      c1.4,0,2.36,0.41,2.87,1.22c0.38,0.6,0.57,1.56,0.57,2.89c0,0.23-0.01,0.58-0.02,1.06c-0.01,0.48-0.02,0.83-0.02,1.07      c0,0.5,0.01,1.24,0.02,2.23C114.21,34.21,114.21,34.95,114.21,35.45z"/>
				<path class="st0" d="M127.07,20.09c0,0.96-0.04,2.4-0.13,4.32c-0.09,1.92-0.13,3.35-0.13,4.31c0,2.94,0.06,5.17,0.19,6.68      l0.01,0.15c0.01,0.07-0.09,0.12-0.3,0.15c-0.14,0.01-0.34,0.01-0.6,0c-0.31-0.02-0.46-0.03-0.44-0.03      c-0.11,0-0.28,0.01-0.49,0.03c-0.22,0.02-0.38,0.03-0.49,0.03c-0.1,0-0.17-0.26-0.18-0.78c-0.02-0.52-0.05-0.78-0.08-0.79      c-0.04,0.02-0.1,0.07-0.17,0.15c-1.02,1.1-2.19,1.65-3.52,1.65c-1.5,0-2.74-0.57-3.71-1.72c-0.92-1.08-1.37-2.38-1.37-3.91      c0-1.59,0.46-2.92,1.38-4c0.97-1.13,2.23-1.7,3.79-1.7c0.94,0,1.76,0.28,2.46,0.83c0.32,0.28,0.64,0.55,0.95,0.84      c0.06-0.02,0.09-0.07,0.09-0.16v-3.62c0-0.25-0.01-0.62-0.03-1.12c-0.02-0.5-0.03-0.87-0.03-1.13c0-0.18,0.06-0.27,0.18-0.27      c0.28,0,0.68-0.02,1.23-0.07c0.54-0.05,0.95-0.07,1.22-0.07C127.01,19.86,127.07,19.94,127.07,20.09z M124.28,30.26      c0-0.89-0.28-1.68-0.83-2.36c-0.59-0.72-1.32-1.08-2.19-1.08c-0.92,0-1.67,0.36-2.27,1.07c-0.57,0.67-0.85,1.47-0.85,2.41      c0,0.89,0.29,1.67,0.88,2.33c0.6,0.7,1.35,1.05,2.23,1.05c0.89,0,1.63-0.35,2.21-1.06C124.01,31.96,124.28,31.17,124.28,30.26z"/>
				<path class="st0" d="M131.96,22.32c0,0.92-0.51,1.37-1.53,1.37c-1.03,0-1.55-0.46-1.55-1.37c0-0.41,0.16-0.75,0.48-1.02      c0.3-0.25,0.66-0.38,1.07-0.38c0.42,0,0.78,0.13,1.08,0.39C131.81,21.57,131.96,21.91,131.96,22.32z M131.88,25.34      c0,0.57-0.04,1.44-0.11,2.6c-0.07,1.16-0.11,2.03-0.11,2.61c0,0.54,0.01,1.36,0.03,2.44c0.02,1.08,0.03,1.89,0.03,2.43      c0,0.16-0.07,0.23-0.2,0.23h-2.18c-0.16,0-0.23-0.15-0.23-0.46c0-0.51,0.01-1.29,0.04-2.32c0.03-1.03,0.04-1.81,0.04-2.33      c0-0.58-0.04-1.45-0.13-2.61c-0.09-1.16-0.13-2.03-0.13-2.61c0-0.13,0.08-0.19,0.23-0.19c0.13,0,0.34,0.02,0.62,0.06      c0.28,0.04,0.49,0.06,0.63,0.06c0.14,0,0.35-0.02,0.63-0.06c0.28-0.04,0.49-0.06,0.63-0.06      C131.82,25.13,131.88,25.2,131.88,25.34z"/>
			</g>
			<g>
				<path class="st1" d="M150.22,22.12c0,0.19-0.07,0.29-0.2,0.29c-0.21,0-1.53-0.04-3.95-0.13c-0.07,2.27-0.1,4.09-0.1,5.46      c0,0.86,0.03,2.14,0.09,3.85c0.06,1.71,0.09,3,0.09,3.85c0,0.16-0.11,0.23-0.32,0.23c-0.13,0-0.34-0.01-0.61-0.03      c-0.28-0.02-0.48-0.03-0.63-0.03c-0.13,0-0.34,0.01-0.61,0.03c-0.28,0.02-0.48,0.03-0.61,0.03c-0.19,0-0.28-0.09-0.28-0.28      c0-0.85,0.04-2.12,0.11-3.83c0.07-1.7,0.11-2.98,0.11-3.84c0-1.33-0.04-3.15-0.12-5.46c-1.92,0.12-3.33,0.18-4.22,0.18      c-0.09,0-0.13-0.04-0.13-0.11c0-0.13,0.03-0.33,0.1-0.58c0.08-0.33,0.13-0.52,0.15-0.58c0.01-0.26,0.07-0.62,0.16-1.08      c0.04-0.1,0.1-0.15,0.19-0.15l0.13,0.01c2.64,0.16,4.37,0.23,5.22,0.23c0.74,0,1.96-0.06,3.65-0.17      c1.15-0.07,1.63-0.11,1.44-0.11c0.19,0,0.3,0.07,0.32,0.2c-0.01-0.08-0.02,0.28-0.02,1.08c0,0.1,0.01,0.25,0.03,0.45      C150.21,21.86,150.22,22.01,150.22,22.12z"/>
				<path class="st1" d="M157.94,25.19c0,0.82-0.06,1.56-0.17,2.23c-0.02,0.17-0.1,0.26-0.22,0.26c-0.16,0-0.39-0.02-0.71-0.05      c-0.32-0.03-0.56-0.05-0.72-0.05c-0.94,0-1.54,0.26-1.8,0.79c-0.16,0.32-0.23,0.99-0.23,2v1.23c0,0.42,0.02,1.05,0.05,1.9      c0.03,0.85,0.05,1.48,0.05,1.9c0,0.2-0.09,0.3-0.26,0.3c-0.23,0-0.58,0-1.05-0.01c-0.47-0.01-0.82-0.01-1.05-0.01      c-0.17,0-0.26-0.09-0.26-0.28c0-0.6,0.01-1.51,0.03-2.73c0.02-1.21,0.03-2.13,0.03-2.74c0-1.84-0.17-3.32-0.51-4.43      c-0.02-0.06-0.02-0.1-0.02-0.13c0-0.09,0.05-0.15,0.15-0.19c0.28-0.03,0.66-0.07,1.16-0.13c0.8-0.15,1.18-0.22,1.12-0.22      c0.12,0,0.2,0.22,0.23,0.66c0.04,0.44,0.1,0.66,0.2,0.66c0.01,0,0.03-0.01,0.06-0.02c0.31-0.19,0.61-0.39,0.92-0.58      c0.34-0.2,0.68-0.35,1.03-0.45c0.29-0.09,0.66-0.13,1.12-0.13C157.65,24.95,157.94,25.03,157.94,25.19z"/>
				<path class="st1" d="M170.02,25.57c0,0.03-0.01,0.1-0.03,0.2c-0.29,1.71-0.44,3.18-0.44,4.41c0,0.07,0.09,1.75,0.28,5.01      l0.01,0.16c0.01,0.22-0.09,0.32-0.3,0.32c-0.2,0-0.51,0.02-0.93,0.07c-0.41,0.05-0.72,0.07-0.92,0.07      c-0.14,0-0.25-0.26-0.32-0.78c-0.07-0.52-0.15-0.78-0.21-0.78c-0.04,0-0.25,0.15-0.6,0.44c-0.44,0.36-0.85,0.63-1.23,0.82      c-0.59,0.3-1.18,0.45-1.76,0.45c-1.44,0-2.66-0.58-3.65-1.73c-0.94-1.1-1.41-2.39-1.41-3.85c0-1.65,0.47-3.02,1.42-4.1      c0.99-1.12,2.29-1.69,3.91-1.69c1.14,0,2.13,0.39,2.98,1.18c0.13,0.15,0.32,0.36,0.59,0.65c0.02,0.02,0.04,0.03,0.07,0.03      c0.04,0,0.11-0.23,0.19-0.7c0.08-0.47,0.19-0.7,0.31-0.7c0.2,0,0.58,0.06,1.13,0.17C169.72,25.34,170.02,25.46,170.02,25.57z       M167.17,30.23c0-0.92-0.27-1.7-0.82-2.36c-0.57-0.71-1.31-1.06-2.2-1.06c-0.89,0-1.64,0.35-2.23,1.05      c-0.57,0.67-0.86,1.46-0.86,2.37c0,0.9,0.29,1.68,0.86,2.35c0.6,0.69,1.34,1.04,2.23,1.04c0.87,0,1.6-0.35,2.19-1.06      C166.9,31.9,167.17,31.12,167.17,30.23z"/>
				<path class="st1" d="M179.64,25.54c0,0.16-0.09,0.53-0.26,1.09c-0.17,0.57-0.29,0.85-0.36,0.85c-0.34-0.15-0.67-0.3-1.01-0.45      c-0.34-0.15-0.71-0.22-1.11-0.22c-0.92,0-1.68,0.34-2.29,1.02c-0.61,0.68-0.92,1.48-0.92,2.4c0,0.91,0.31,1.69,0.92,2.36      c0.63,0.69,1.39,1.03,2.29,1.03c0.5,0,0.99-0.12,1.47-0.37c0.48-0.25,0.7-0.37,0.64-0.37c0.1,0,0.2,0.31,0.32,0.94      c0.11,0.57,0.17,0.96,0.17,1.17c0,0.23-0.44,0.46-1.31,0.68c-0.73,0.19-1.27,0.28-1.62,0.28c-1.53,0-2.83-0.57-3.89-1.72      c-1.04-1.12-1.55-2.45-1.55-4c0-1.58,0.51-2.92,1.52-4.02c1.04-1.13,2.34-1.7,3.9-1.7c1.04,0,2,0.26,2.86,0.79      C179.56,25.4,179.64,25.48,179.64,25.54z"/>
				<path class="st1" d="M192.01,28.01c0,1.94-0.9,3.23-2.69,3.89c0,0.38,0.74,1.56,2.23,3.55c0,0.11-0.37,0.19-1.12,0.22      c-0.49,0.02-0.86,0.03-1.11,0.03c-0.53,0-0.86-0.11-0.99-0.34c-0.35-0.6-0.9-1.46-1.65-2.6c-0.09-0.13-0.9-0.19-2.42-0.17      l-0.44,0.01v2.76c0,0.23-0.08,0.35-0.25,0.35c-0.24,0-0.59,0-1.06-0.01c-0.47-0.01-0.82-0.01-1.06-0.01      c-0.16,0-0.25-0.15-0.25-0.44v-6.95c0-0.91-0.04-2.27-0.11-4.08c-0.07-1.81-0.11-3.17-0.11-4.08c0-0.13,0.07-0.21,0.21-0.22      c0.25-0.01,0.62-0.02,1.12-0.04c0.1-0.01,0.32-0.03,0.66-0.08c0.27-0.04,0.48-0.06,0.65-0.06c0.1,0,0.16,0.09,0.16,0.27      c0,0.4-0.02,1-0.06,1.8c-0.04,0.8-0.06,1.4-0.06,1.8v2.88c0,0.16,0.03,0.23,0.1,0.23c0.18-0.15,0.45-0.37,0.8-0.66      c1.25-0.97,2.44-1.45,3.57-1.45c1.1,0,2,0.28,2.7,0.85C191.63,26.1,192.01,26.94,192.01,28.01z M189.32,28.54      c0-1.06-0.69-1.6-2.07-1.6c-1.03,0-2.19,0.69-3.47,2.05v1.66c0.6,0.11,1.33,0.17,2.19,0.17c0.86,0,1.6-0.16,2.21-0.49      C188.94,29.93,189.32,29.33,189.32,28.54z"/>
			</g>
		</g>
		<g>
			<path class="st2" d="M91.31,39.38c0,0.72-0.19,1.3-0.58,1.73c-0.4,0.44-0.96,0.67-1.67,0.67c-0.17,0-0.44-0.01-0.79-0.02     c-0.35-0.01-0.62-0.02-0.8-0.02c-0.1,0-0.15,0.06-0.15,0.19c0,0.16,0.01,0.41,0.03,0.73c0.02,0.32,0.03,0.57,0.03,0.73     c0,0.05-0.03,0.08-0.09,0.08c-0.06,0-0.16-0.01-0.29-0.02c-0.13-0.01-0.23-0.02-0.29-0.02c-0.06,0-0.14,0-0.24,0.01     c-0.11,0.01-0.19,0.01-0.24,0.01c-0.08,0-0.11-0.05-0.11-0.14c0-0.33,0.01-0.84,0.04-1.51c0.03-0.67,0.04-1.18,0.04-1.52     c0-0.96-0.04-1.98-0.11-3.08l0-0.07c0-0.07,0.04-0.1,0.12-0.1c0.17,0,0.41,0,0.75,0c0.33,0,0.58,0,0.75,0     c0.14,0,0.36-0.01,0.65-0.02c0.29-0.01,0.5-0.02,0.65-0.02c0.68,0,1.23,0.23,1.67,0.69C91.1,38.14,91.31,38.7,91.31,39.38z      M90.15,39.45c0-0.46-0.12-0.83-0.37-1.1c-0.26-0.29-0.61-0.43-1.07-0.43c-0.14,0-0.39,0.01-0.75,0.04     c-0.41,0.02-0.63,0.05-0.64,0.07c-0.02,0.04-0.03,0.56-0.03,1.58c0,0.13,0,0.32,0.01,0.58c0.01,0.26,0.01,0.45,0.01,0.58     c0,0.03,0.03,0.05,0.1,0.06c0.17,0.03,0.64,0.05,1.4,0.05c0.43,0,0.76-0.13,1-0.4C90.04,40.22,90.15,39.88,90.15,39.45z"/>
			<path class="st2" d="M94.6,39.13c0,0.34-0.02,0.64-0.07,0.92c-0.01,0.07-0.04,0.11-0.09,0.11c-0.06,0-0.16-0.01-0.29-0.02     c-0.13-0.01-0.23-0.02-0.3-0.02c-0.39,0-0.63,0.11-0.74,0.33c-0.06,0.13-0.1,0.41-0.1,0.82v0.51c0,0.17,0.01,0.43,0.02,0.78     c0.01,0.35,0.02,0.61,0.02,0.78c0,0.08-0.04,0.12-0.11,0.12c-0.1,0-0.24,0-0.43,0c-0.19,0-0.34,0-0.43,0     c-0.07,0-0.11-0.04-0.11-0.11c0-0.25,0-0.62,0.01-1.12C92,41.71,92,41.34,92,41.09c0-0.76-0.07-1.36-0.21-1.82     c-0.01-0.02-0.01-0.04-0.01-0.06c0-0.04,0.02-0.06,0.06-0.08c0.11-0.01,0.27-0.03,0.48-0.06c0.33-0.06,0.48-0.09,0.46-0.09     c0.05,0,0.08,0.09,0.1,0.27c0.02,0.18,0.04,0.27,0.08,0.27c0.01,0,0.01,0,0.02-0.01c0.13-0.08,0.25-0.16,0.38-0.24     c0.14-0.08,0.28-0.14,0.42-0.18c0.12-0.04,0.27-0.06,0.46-0.06C94.48,39.04,94.6,39.07,94.6,39.13z"/>
			<path class="st2" d="M99.27,41.21c0,0.64-0.21,1.19-0.63,1.64c-0.43,0.47-0.96,0.7-1.59,0.7c-0.64,0-1.17-0.23-1.6-0.7     c-0.42-0.45-0.63-1-0.63-1.64s0.21-1.19,0.63-1.64c0.43-0.46,0.97-0.69,1.6-0.69c0.63,0,1.16,0.23,1.59,0.69     C99.05,40.03,99.27,40.57,99.27,41.21z M98.3,41.22c0-0.37-0.11-0.69-0.34-0.96c-0.24-0.28-0.54-0.42-0.91-0.42     c-0.37,0-0.67,0.14-0.91,0.41c-0.23,0.27-0.34,0.59-0.34,0.96c0,0.37,0.12,0.69,0.35,0.96c0.25,0.28,0.55,0.43,0.91,0.43     c0.36,0,0.67-0.14,0.91-0.43C98.18,41.9,98.3,41.59,98.3,41.22z"/>
			<path class="st2" d="M101.08,39.18c0,0.2-0.01,0.51-0.03,0.91c-0.02,0.41-0.03,0.71-0.03,0.92c0,0.22,0,0.56,0.01,1.01     c0.01,0.45,0.01,0.79,0.01,1.01c0,0.88-0.4,1.44-1.19,1.67c-0.23,0.07-0.39,0.1-0.5,0.1c-0.05,0-0.08-0.03-0.09-0.1     c-0.01-0.04-0.02-0.11-0.01-0.19c0.01-0.12,0.01-0.17,0.01-0.15c0-0.04-0.01-0.1-0.02-0.18c-0.01-0.08-0.02-0.14-0.02-0.18     c0-0.06,0.02-0.09,0.06-0.1c0.31-0.06,0.5-0.12,0.59-0.21c0.1-0.1,0.16-0.31,0.16-0.62c0-0.22-0.01-0.55-0.02-0.99     c-0.01-0.44-0.02-0.77-0.02-0.99c0-0.43-0.04-1.04-0.11-1.82l0-0.05c0-0.04,0.03-0.07,0.08-0.08c0.02-0.01,0.19-0.02,0.5-0.05     c0.32-0.02,0.49-0.04,0.53-0.04C101.06,39.06,101.08,39.1,101.08,39.18z M101.14,37.94c0,0.37-0.21,0.56-0.64,0.56     c-0.18,0-0.33-0.05-0.45-0.14c-0.13-0.1-0.19-0.24-0.19-0.42c0-0.17,0.06-0.31,0.19-0.42c0.12-0.1,0.27-0.15,0.45-0.15     s0.32,0.05,0.45,0.15C101.08,37.63,101.14,37.77,101.14,37.94z"/>
			<path class="st2" d="M105.89,40.98c0,0.23-0.1,0.38-0.29,0.46c-0.13,0.05-1.08,0.14-2.84,0.27c0.04,0.27,0.19,0.5,0.45,0.69     c0.25,0.18,0.51,0.27,0.79,0.27c0.48,0,0.93-0.16,1.33-0.47c0.05-0.04,0.1-0.08,0.15-0.12c0.02,0,0.04,0,0.05,0.01     c0.01,0.01,0.07,0.11,0.17,0.32c0.11,0.21,0.16,0.32,0.16,0.33c0,0.02-0.02,0.05-0.07,0.11c-0.45,0.48-1.03,0.72-1.73,0.72     c-0.71,0-1.28-0.21-1.7-0.64c-0.42-0.42-0.63-0.99-0.63-1.7c0-0.63,0.2-1.18,0.61-1.65c0.43-0.49,0.95-0.73,1.57-0.73     c0.58,0,1.06,0.21,1.44,0.63C105.7,39.89,105.89,40.39,105.89,40.98z M104.79,40.7c0-0.25-0.1-0.48-0.3-0.68     c-0.2-0.2-0.43-0.29-0.68-0.29c-0.28,0-0.53,0.11-0.75,0.34c-0.22,0.23-0.33,0.48-0.33,0.76c0,0.06,0.06,0.1,0.17,0.1     c0.45,0,1-0.05,1.63-0.14C104.71,40.77,104.79,40.74,104.79,40.7z"/>
			<path class="st2" d="M109.74,39.28c0,0.07-0.04,0.22-0.11,0.45c-0.07,0.23-0.12,0.35-0.15,0.35c-0.14-0.06-0.28-0.12-0.42-0.18     c-0.14-0.06-0.29-0.09-0.46-0.09c-0.38,0-0.69,0.14-0.94,0.42c-0.25,0.28-0.38,0.61-0.38,0.99c0,0.37,0.13,0.7,0.38,0.97     c0.26,0.28,0.57,0.42,0.94,0.42c0.21,0,0.41-0.05,0.61-0.15c0.2-0.1,0.29-0.15,0.26-0.15c0.04,0,0.08,0.13,0.13,0.39     c0.05,0.23,0.07,0.39,0.07,0.48c0,0.1-0.18,0.19-0.54,0.28c-0.3,0.08-0.52,0.11-0.67,0.11c-0.63,0-1.16-0.24-1.6-0.71     c-0.43-0.46-0.64-1.01-0.64-1.65c0-0.65,0.21-1.2,0.62-1.65c0.43-0.47,0.96-0.7,1.6-0.7c0.43,0,0.82,0.11,1.18,0.33     C109.71,39.22,109.74,39.25,109.74,39.28z"/>
			<path class="st2" d="M112.87,42.6c0,0.07-0.01,0.16-0.02,0.28c-0.02,0.14-0.02,0.24-0.03,0.28c0,0.06-0.01,0.09-0.01,0.1     c-0.01,0.02-0.04,0.04-0.09,0.06c-0.25,0.12-0.65,0.18-1.19,0.18c-0.72,0-1.08-0.32-1.08-0.97c0-0.26,0.01-0.65,0.02-1.17     c0.01-0.52,0.02-0.91,0.02-1.17c0-0.13-0.06-0.19-0.19-0.2c-0.11,0-0.23,0-0.34,0c-0.06-0.02-0.1-0.14-0.1-0.38     c0-0.09,0.01-0.18,0.02-0.28c0.01-0.07,0.06-0.12,0.15-0.13c0.08,0,0.15,0,0.23,0c0.14-0.01,0.21-0.07,0.21-0.19     c0-0.12,0-0.31-0.01-0.56c-0.01-0.25-0.01-0.44-0.01-0.57c0-0.22,0.04-0.34,0.13-0.34c0.03,0,0.32,0.05,0.86,0.14     c0.07,0.01,0.11,0.04,0.11,0.1c0,0.13-0.01,0.34-0.03,0.61c-0.02,0.27-0.03,0.47-0.03,0.61c0,0.09,0.04,0.13,0.12,0.13h1.1     c0.05,0,0.08,0.02,0.08,0.06s-0.01,0.1-0.02,0.18c-0.01,0.08-0.02,0.14-0.02,0.18c0,0.05,0,0.12,0,0.21c0,0.1,0,0.17,0,0.21     c0,0.06-0.04,0.09-0.13,0.09c-0.12,0-0.31-0.01-0.56-0.03c-0.25-0.02-0.43-0.03-0.56-0.03c-0.02,0-0.04,0.09-0.06,0.26     c-0.02,0.22-0.02,0.52-0.02,0.91v0.68c0,0.26,0.02,0.45,0.07,0.55c0.07,0.16,0.23,0.24,0.45,0.24c0.09,0,0.23-0.02,0.42-0.06     c0.18-0.04,0.32-0.06,0.41-0.06C112.85,42.52,112.87,42.55,112.87,42.6z"/>
			<path class="st2" d="M120.44,41.23c0,0.61-0.19,1.13-0.57,1.59c-0.4,0.48-0.9,0.72-1.5,0.72c-0.4,0-0.75-0.1-1.05-0.3     c-0.12-0.1-0.25-0.21-0.37-0.31c-0.03,0.01-0.06,0.1-0.07,0.28c-0.01,0.17-0.04,0.26-0.08,0.26h-0.97     c-0.04,0-0.06-0.02-0.06-0.06c0,0,0-0.02,0.01-0.08c0.05-0.49,0.07-1.43,0.07-2.81c0-0.57-0.02-1.4-0.07-2.5     c-0.03-0.7-0.05-1-0.05-0.92c0-0.08,0.04-0.12,0.12-0.13c0.11,0,0.27-0.01,0.49-0.02c0.04,0,0.13-0.01,0.26-0.03     c0.11-0.02,0.2-0.03,0.27-0.03c0.05,0,0.07,0.04,0.07,0.11c0,0.1-0.01,0.26-0.02,0.48s-0.02,0.38-0.02,0.48     c0,0.16-0.01,0.4-0.02,0.72c-0.01,0.32-0.02,0.56-0.02,0.72c0,0.12,0.02,0.17,0.06,0.17c0.02,0,0.04-0.02,0.07-0.05     c0.34-0.42,0.78-0.63,1.34-0.63c0.63,0,1.15,0.24,1.54,0.71C120.26,40.03,120.44,40.58,120.44,41.23z M119.4,41.19     c0-0.36-0.11-0.69-0.34-0.96c-0.25-0.3-0.55-0.45-0.91-0.45c-0.37,0-0.67,0.15-0.92,0.44c-0.24,0.28-0.35,0.6-0.35,0.97     c0,0.38,0.12,0.71,0.35,0.98c0.25,0.29,0.55,0.43,0.93,0.43c0.36,0,0.66-0.15,0.91-0.45C119.29,41.88,119.4,41.56,119.4,41.19z"/>
			<path class="st2" d="M124.97,40.25c0,0.52-0.02,0.83-0.05,0.94c-0.04,0.14-0.42,0.74-1.14,1.8s-1.14,1.66-1.28,1.79     c-0.12,0.11-0.52,0.17-1.19,0.17c-0.08,0-0.13-0.01-0.15-0.03c-0.02-0.02-0.08-0.13-0.16-0.33c-0.08-0.21-0.12-0.33-0.12-0.37     c0-0.07,0.08-0.1,0.24-0.1c0.34,0,0.6-0.05,0.76-0.15c0.06-0.03,0.14-0.14,0.25-0.32c0.11-0.18,0.17-0.3,0.17-0.36     c0-0.08-0.22-0.41-0.67-0.97c-0.47-0.6-0.73-0.98-0.79-1.14c-0.04-0.13-0.06-0.43-0.06-0.9c0-0.12,0-0.29,0-0.53     c0-0.23,0-0.41,0-0.53c0-0.07,0.04-0.1,0.11-0.1c0.1,0,0.24,0.01,0.43,0.02c0.19,0.01,0.34,0.02,0.43,0.02     c0.05,0,0.07,0.03,0.07,0.1c0,0.09,0,0.21-0.01,0.39c-0.01,0.17-0.01,0.3-0.01,0.39c0,0.37,0.01,0.65,0.04,0.84     c0.02,0.12,0.19,0.41,0.5,0.87c0.32,0.46,0.51,0.69,0.58,0.69c0.05,0,0.22-0.23,0.5-0.68c0.28-0.45,0.43-0.74,0.45-0.84     c0.02-0.15,0.04-0.43,0.04-0.84c0-0.09-0.01-0.22-0.03-0.39c-0.02-0.17-0.03-0.3-0.03-0.39c0-0.08,0.02-0.11,0.07-0.11     c0.1,0,0.25-0.01,0.44-0.02c0.2-0.01,0.35-0.02,0.44-0.02C124.92,39.13,124.97,39.5,124.97,40.25z"/>
			<path class="st2" d="M131.62,37.46c-0.06,0.1-0.15,0.25-0.25,0.46c-0.03,0.09-0.09,0.23-0.18,0.4c-0.02,0.03-0.04,0.04-0.07,0.04     c0,0-0.14-0.05-0.44-0.16c-0.3-0.11-0.54-0.16-0.74-0.16c-0.56,0-0.85,0.25-0.85,0.74c0,0.28,0.2,0.52,0.59,0.72     c0.66,0.35,1.03,0.55,1.1,0.6c0.4,0.32,0.59,0.74,0.59,1.28c0,0.69-0.27,1.23-0.81,1.62c-0.49,0.36-1.09,0.53-1.8,0.53     c-0.33,0-0.51-0.04-0.53-0.11c-0.01-0.12-0.04-0.29-0.08-0.51c-0.02-0.09-0.06-0.23-0.11-0.41c-0.01-0.03-0.01-0.05-0.01-0.08     c0-0.04,0.02-0.06,0.07-0.06c0.07,0,0.19,0.01,0.34,0.02c0.15,0.02,0.27,0.02,0.34,0.02c0.95,0,1.42-0.31,1.42-0.92     c0-0.3-0.19-0.56-0.57-0.78c-0.7-0.4-1.06-0.6-1.07-0.62c-0.39-0.31-0.58-0.73-0.58-1.26c0-0.57,0.19-1.03,0.56-1.37     c0.36-0.33,0.84-0.5,1.42-0.5c0.25,0,0.53,0.04,0.85,0.12c0.35,0.09,0.61,0.2,0.78,0.32C131.59,37.42,131.6,37.44,131.62,37.46z"/>
			<path class="st2" d="M136.49,41.21c0,0.64-0.21,1.19-0.63,1.64c-0.43,0.47-0.96,0.7-1.59,0.7c-0.64,0-1.17-0.23-1.6-0.7     c-0.42-0.45-0.63-1-0.63-1.64s0.21-1.19,0.63-1.64c0.43-0.46,0.97-0.69,1.6-0.69c0.63,0,1.16,0.23,1.59,0.69     C136.27,40.03,136.49,40.57,136.49,41.21z M135.52,41.22c0-0.37-0.11-0.69-0.34-0.96c-0.24-0.28-0.54-0.42-0.91-0.42     c-0.37,0-0.67,0.14-0.91,0.41c-0.23,0.27-0.34,0.59-0.34,0.96c0,0.37,0.12,0.69,0.35,0.96c0.25,0.28,0.55,0.43,0.91,0.43     c0.36,0,0.67-0.14,0.91-0.43C135.4,41.9,135.52,41.59,135.52,41.22z"/>
			<path class="st2" d="M139.51,37.56c0,0.04-0.03,0.06-0.08,0.06c-0.15,0.02-0.3,0.03-0.45,0.04c-0.17,0.02-0.31,0.09-0.4,0.18     c-0.15,0.16-0.23,0.57-0.23,1.24c0.1,0,0.26,0,0.48,0.01c0.22,0.01,0.38,0.01,0.49,0.01c0.07,0,0.11,0.03,0.11,0.08     c0,0.09,0,0.21,0.01,0.38c0.01,0.17,0.01,0.3,0.01,0.38c0,0.06-0.03,0.09-0.09,0.09c-0.11,0-0.27-0.01-0.49-0.02     c-0.22-0.01-0.38-0.02-0.48-0.02v1.37c0,0.21,0.01,0.54,0.02,0.97c0.02,0.44,0.02,0.76,0.02,0.97c0,0.08-0.03,0.12-0.09,0.12     h-0.84c-0.08,0-0.12-0.05-0.12-0.14v-3.16c0-0.08-0.09-0.12-0.28-0.12c-0.2,0-0.31,0-0.32-0.02c-0.01-0.01-0.01-0.07-0.01-0.17     c0-0.07,0-0.17-0.01-0.3c-0.01-0.13-0.01-0.23-0.01-0.3c0-0.06,0.19-0.11,0.58-0.13c-0.01-0.2-0.01-0.36-0.01-0.48     c0-0.54,0.1-0.94,0.29-1.19c0.17-0.23,0.42-0.4,0.75-0.53c0.3-0.12,0.6-0.17,0.92-0.17c0.03,0,0.05,0.02,0.06,0.05     c0,0.01,0.03,0.14,0.08,0.39C139.48,37.42,139.51,37.55,139.51,37.56z"/>
			<path class="st2" d="M142.46,42.6c0,0.07-0.01,0.16-0.02,0.28c-0.02,0.14-0.02,0.24-0.03,0.28c0,0.06-0.01,0.09-0.01,0.1     c-0.01,0.02-0.04,0.04-0.09,0.06c-0.25,0.12-0.65,0.18-1.19,0.18c-0.72,0-1.08-0.32-1.08-0.97c0-0.26,0.01-0.65,0.02-1.17     c0.01-0.52,0.02-0.91,0.02-1.17c0-0.13-0.06-0.19-0.19-0.2c-0.11,0-0.23,0-0.34,0c-0.06-0.02-0.1-0.14-0.1-0.38     c0-0.09,0.01-0.18,0.02-0.28c0.01-0.07,0.06-0.12,0.15-0.13c0.08,0,0.15,0,0.23,0c0.14-0.01,0.21-0.07,0.21-0.19     c0-0.12,0-0.31-0.01-0.56c-0.01-0.25-0.01-0.44-0.01-0.57c0-0.22,0.04-0.34,0.13-0.34c0.03,0,0.32,0.05,0.86,0.14     c0.07,0.01,0.11,0.04,0.11,0.1c0,0.13-0.01,0.34-0.03,0.61c-0.02,0.27-0.03,0.47-0.03,0.61c0,0.09,0.04,0.13,0.12,0.13h1.1     c0.05,0,0.08,0.02,0.08,0.06s-0.01,0.1-0.02,0.18c-0.01,0.08-0.02,0.14-0.02,0.18c0,0.05,0,0.12,0,0.21c0,0.1,0,0.17,0,0.21     c0,0.06-0.04,0.09-0.13,0.09c-0.12,0-0.31-0.01-0.56-0.03c-0.25-0.02-0.43-0.03-0.56-0.03c-0.02,0-0.04,0.09-0.06,0.26     c-0.02,0.22-0.02,0.52-0.02,0.91v0.68c0,0.26,0.02,0.45,0.07,0.55c0.07,0.16,0.23,0.24,0.45,0.24c0.09,0,0.23-0.02,0.42-0.06     c0.18-0.04,0.32-0.06,0.41-0.06C142.44,42.52,142.46,42.55,142.46,42.6z"/>
			<path class="st2" d="M149.83,42.52c0,0.05-0.01,0.12-0.04,0.21c-0.03,0.12-0.04,0.19-0.05,0.21c-0.01,0.11-0.03,0.27-0.06,0.48     c-0.02,0.06-0.06,0.08-0.12,0.08c-0.03,0-0.09-0.01-0.17-0.02c-0.38-0.06-0.96-0.08-1.75-0.08c-0.22,0-0.56,0.01-1.01,0.02     c-0.45,0.01-0.79,0.02-1.01,0.02c-0.1,0-0.15-0.04-0.15-0.13c0-0.34,0.02-0.86,0.06-1.55c0.04-0.69,0.06-1.2,0.06-1.55     c0-0.35-0.02-1-0.06-1.95c-0.01-0.25-0.02-0.61-0.05-1.1l0-0.06c0-0.07,0.04-0.11,0.12-0.11c0.21,0,0.54,0.01,0.96,0.02     c0.43,0.01,0.75,0.02,0.96,0.02c0.21,0,0.51-0.01,0.92-0.02c0.41-0.01,0.72-0.02,0.92-0.02c0.14,0,0.22,0.04,0.23,0.13     c0.06,0.4,0.1,0.66,0.1,0.75c0,0.07-0.03,0.11-0.1,0.11c-0.26,0-0.65-0.01-1.18-0.04c-0.53-0.03-0.93-0.04-1.19-0.04     c-0.25,0-0.41,0.03-0.48,0.1c-0.07,0.07-0.1,0.23-0.1,0.5v0.68c0,0.19,0,0.3,0.01,0.33c0.03,0.09,0.11,0.14,0.24,0.14     c0.04,0,0.09,0,0.16,0c0.07,0,0.12,0,0.16,0c0.6,0,1.14-0.01,1.62-0.03c0.19-0.01,0.41-0.02,0.66-0.05     c0.06-0.01,0.1,0.02,0.1,0.08c0,0.1-0.01,0.25-0.03,0.45s-0.03,0.35-0.03,0.45c0,0.06-0.05,0.08-0.14,0.08     c-0.04,0-0.17-0.01-0.41-0.03c-0.17-0.02-0.56-0.03-1.16-0.03c-0.51,0-0.83,0.01-0.96,0.02c-0.12,0.01-0.19,0.07-0.21,0.19     c0-0.02,0,0.1,0,0.35v0.68c0,0.32,0.05,0.52,0.15,0.6c0.08,0.06,0.27,0.1,0.57,0.1l0.51,0c0.21,0,0.82-0.04,1.81-0.11l0.07,0     C149.8,42.4,149.83,42.44,149.83,42.52z"/>
			<path class="st2" d="M154.58,43.36c0,0.07-0.03,0.1-0.09,0.1c-0.1,0-0.25,0-0.45,0c-0.2,0-0.35,0-0.45,0     c-0.06,0-0.08-0.04-0.08-0.13c0-0.15,0-0.38,0.01-0.68c0.01-0.31,0.01-0.54,0.01-0.69c0-0.12,0-0.31,0-0.55c0-0.24,0-0.43,0-0.55     c0-0.35-0.05-0.6-0.15-0.74c-0.12-0.17-0.35-0.26-0.68-0.26c-0.15,0-0.37,0.09-0.64,0.26c-0.29,0.18-0.43,0.34-0.43,0.48v2.76     c0,0.08-0.03,0.11-0.09,0.11c-0.1,0-0.25,0-0.44,0c-0.2,0-0.34,0-0.44,0c-0.06,0-0.1-0.04-0.1-0.11c0-0.24,0-0.6,0.01-1.09     c0.01-0.48,0.01-0.85,0.01-1.09c0-0.65-0.07-1.25-0.21-1.81c-0.01-0.03-0.01-0.05-0.01-0.06c0-0.03,0.02-0.05,0.06-0.06     c0.02,0,0.2-0.03,0.53-0.09c0.33-0.05,0.5-0.08,0.52-0.08c0.02,0,0.03,0.02,0.04,0.07c0.02,0.19,0.05,0.38,0.11,0.57     c0.16-0.13,0.37-0.28,0.63-0.47c0.32-0.2,0.63-0.29,0.93-0.29c0.58,0,0.97,0.17,1.18,0.5c0.16,0.25,0.23,0.64,0.23,1.19     c0,0.09,0,0.24-0.01,0.44c0,0.2-0.01,0.34-0.01,0.44c0,0.21,0,0.51,0.01,0.92C154.58,42.84,154.58,43.15,154.58,43.36z"/>
			<path class="st2" d="M158.01,42.6c0,0.07-0.01,0.16-0.02,0.28c-0.02,0.14-0.02,0.24-0.03,0.28c0,0.06-0.01,0.09-0.01,0.1     c-0.01,0.02-0.04,0.04-0.09,0.06c-0.25,0.12-0.65,0.18-1.19,0.18c-0.72,0-1.08-0.32-1.08-0.97c0-0.26,0.01-0.65,0.02-1.17     c0.01-0.52,0.02-0.91,0.02-1.17c0-0.13-0.06-0.19-0.19-0.2c-0.11,0-0.23,0-0.34,0c-0.06-0.02-0.1-0.14-0.1-0.38     c0-0.09,0.01-0.18,0.02-0.28c0.01-0.07,0.06-0.12,0.15-0.13c0.08,0,0.15,0,0.23,0c0.14-0.01,0.21-0.07,0.21-0.19     c0-0.12,0-0.31-0.01-0.56c-0.01-0.25-0.01-0.44-0.01-0.57c0-0.22,0.04-0.34,0.13-0.34c0.03,0,0.32,0.05,0.86,0.14     c0.07,0.01,0.11,0.04,0.11,0.1c0,0.13-0.01,0.34-0.03,0.61c-0.02,0.27-0.03,0.47-0.03,0.61c0,0.09,0.04,0.13,0.12,0.13h1.1     c0.05,0,0.08,0.02,0.08,0.06s-0.01,0.1-0.02,0.18c-0.01,0.08-0.02,0.14-0.02,0.18c0,0.05,0,0.12,0,0.21c0,0.1,0,0.17,0,0.21     c0,0.06-0.04,0.09-0.13,0.09c-0.12,0-0.31-0.01-0.56-0.03c-0.25-0.02-0.43-0.03-0.56-0.03c-0.02,0-0.04,0.09-0.06,0.26     c-0.02,0.22-0.02,0.52-0.02,0.91v0.68c0,0.26,0.02,0.45,0.07,0.55c0.07,0.16,0.23,0.24,0.45,0.24c0.09,0,0.23-0.02,0.42-0.06     c0.18-0.04,0.32-0.06,0.41-0.06C158,42.52,158.01,42.55,158.01,42.6z"/>
			<path class="st2" d="M162.56,40.98c0,0.23-0.1,0.38-0.29,0.46c-0.13,0.05-1.08,0.14-2.84,0.27c0.04,0.27,0.19,0.5,0.45,0.69     c0.25,0.18,0.51,0.27,0.79,0.27c0.48,0,0.93-0.16,1.33-0.47c0.05-0.04,0.1-0.08,0.15-0.12c0.02,0,0.04,0,0.05,0.01     c0.01,0.01,0.07,0.11,0.17,0.32c0.11,0.21,0.16,0.32,0.16,0.33c0,0.02-0.02,0.05-0.07,0.11c-0.45,0.48-1.03,0.72-1.73,0.72     c-0.71,0-1.28-0.21-1.7-0.64c-0.42-0.42-0.63-0.99-0.63-1.7c0-0.63,0.2-1.18,0.61-1.65c0.43-0.49,0.95-0.73,1.57-0.73     c0.58,0,1.06,0.21,1.44,0.63C162.37,39.89,162.56,40.39,162.56,40.98z M161.47,40.7c0-0.25-0.1-0.48-0.3-0.68     c-0.2-0.2-0.43-0.29-0.68-0.29c-0.28,0-0.53,0.11-0.75,0.34c-0.22,0.23-0.33,0.48-0.33,0.76c0,0.06,0.06,0.1,0.17,0.1     c0.45,0,1-0.05,1.63-0.14C161.38,40.77,161.47,40.74,161.47,40.7z"/>
			<path class="st2" d="M165.83,39.13c0,0.34-0.02,0.64-0.07,0.92c-0.01,0.07-0.04,0.11-0.09,0.11c-0.06,0-0.16-0.01-0.29-0.02     c-0.13-0.01-0.23-0.02-0.3-0.02c-0.39,0-0.63,0.11-0.74,0.33c-0.06,0.13-0.1,0.41-0.1,0.82v0.51c0,0.17,0.01,0.43,0.02,0.78     c0.01,0.35,0.02,0.61,0.02,0.78c0,0.08-0.04,0.12-0.11,0.12c-0.1,0-0.24,0-0.43,0c-0.19,0-0.34,0-0.43,0     c-0.07,0-0.11-0.04-0.11-0.11c0-0.25,0-0.62,0.01-1.12c0.01-0.5,0.01-0.87,0.01-1.13c0-0.76-0.07-1.36-0.21-1.82     c-0.01-0.02-0.01-0.04-0.01-0.06c0-0.04,0.02-0.06,0.06-0.08c0.11-0.01,0.27-0.03,0.48-0.06c0.33-0.06,0.48-0.09,0.46-0.09     c0.05,0,0.08,0.09,0.1,0.27c0.02,0.18,0.04,0.27,0.08,0.27c0.01,0,0.01,0,0.02-0.01c0.13-0.08,0.25-0.16,0.38-0.24     c0.14-0.08,0.28-0.14,0.42-0.18c0.12-0.04,0.27-0.06,0.46-0.06C165.72,39.04,165.83,39.07,165.83,39.13z"/>
			<path class="st2" d="M170.93,41.24c0,0.62-0.2,1.16-0.59,1.61c-0.41,0.48-0.92,0.72-1.53,0.72c-0.38,0-0.71-0.12-1-0.35     c-0.13-0.12-0.26-0.24-0.39-0.36c-0.02,0.01-0.03,0.03-0.04,0.07c0,0.02,0,0.19,0,0.51l0,1.3c0,0.1-0.04,0.15-0.11,0.15     c-0.47,0-0.75-0.01-0.84-0.02c-0.07-0.01-0.11-0.05-0.11-0.12c0-0.39,0-0.98,0.01-1.76c0.01-0.78,0.01-1.37,0.01-1.76     c0-0.72-0.05-1.4-0.14-2.03c-0.01-0.04-0.01-0.06-0.01-0.07c0-0.03,0.02-0.06,0.05-0.06c0.12-0.01,0.29-0.02,0.51-0.05     c0.3-0.06,0.47-0.08,0.51-0.08c0.05,0,0.09,0.09,0.1,0.28c0.01,0.12,0.02,0.24,0.02,0.36c0,0.02,0.01,0.05,0.03,0.07     c0.02-0.01,0.05-0.03,0.07-0.06c0.43-0.44,0.86-0.66,1.3-0.66c0.61,0,1.12,0.24,1.53,0.71     C170.73,40.08,170.93,40.62,170.93,41.24z M169.86,41.22c0-0.37-0.11-0.69-0.34-0.97c-0.24-0.3-0.54-0.45-0.91-0.45     c-0.36,0-0.65,0.15-0.87,0.46c-0.21,0.28-0.31,0.6-0.31,0.97c0,0.37,0.11,0.7,0.32,0.97c0.24,0.3,0.54,0.45,0.9,0.45     c0.35,0,0.64-0.15,0.88-0.46C169.75,41.9,169.86,41.57,169.86,41.22z"/>
			<path class="st2" d="M174.28,39.13c0,0.34-0.02,0.64-0.07,0.92c-0.01,0.07-0.04,0.11-0.09,0.11c-0.06,0-0.16-0.01-0.29-0.02     c-0.13-0.01-0.23-0.02-0.3-0.02c-0.39,0-0.63,0.11-0.74,0.33c-0.06,0.13-0.1,0.41-0.1,0.82v0.51c0,0.17,0.01,0.43,0.02,0.78     c0.01,0.35,0.02,0.61,0.02,0.78c0,0.08-0.04,0.12-0.11,0.12c-0.1,0-0.24,0-0.43,0c-0.19,0-0.34,0-0.43,0     c-0.07,0-0.11-0.04-0.11-0.11c0-0.25,0-0.62,0.01-1.12c0.01-0.5,0.01-0.87,0.01-1.13c0-0.76-0.07-1.36-0.21-1.82     c-0.01-0.02-0.01-0.04-0.01-0.06c0-0.04,0.02-0.06,0.06-0.08c0.11-0.01,0.27-0.03,0.48-0.06c0.33-0.06,0.48-0.09,0.46-0.09     c0.05,0,0.08,0.09,0.1,0.27c0.02,0.18,0.04,0.27,0.08,0.27c0.01,0,0.01,0,0.02-0.01c0.13-0.08,0.25-0.16,0.38-0.24     c0.14-0.08,0.28-0.14,0.42-0.18c0.12-0.04,0.27-0.06,0.46-0.06C174.16,39.04,174.28,39.07,174.28,39.13z"/>
			<path class="st2" d="M175.98,37.95c0,0.38-0.21,0.57-0.63,0.57c-0.43,0-0.64-0.19-0.64-0.57c0-0.17,0.07-0.31,0.2-0.42     c0.12-0.1,0.27-0.16,0.44-0.16c0.17,0,0.32,0.05,0.44,0.16C175.91,37.65,175.98,37.78,175.98,37.95z M175.94,39.2     c0,0.24-0.01,0.59-0.04,1.07c-0.03,0.48-0.04,0.83-0.04,1.07c0,0.22,0,0.56,0.01,1c0.01,0.45,0.01,0.78,0.01,1     c0,0.06-0.03,0.1-0.08,0.1h-0.9c-0.06,0-0.1-0.06-0.1-0.19c0-0.21,0.01-0.53,0.02-0.95c0.01-0.42,0.02-0.74,0.02-0.96     c0-0.24-0.02-0.6-0.05-1.08c-0.04-0.48-0.05-0.84-0.05-1.08c0-0.05,0.03-0.08,0.1-0.08c0.06,0,0.14,0.01,0.26,0.02     c0.11,0.02,0.2,0.02,0.26,0.02c0.06,0,0.14-0.01,0.26-0.02c0.11-0.02,0.2-0.02,0.26-0.02C175.92,39.11,175.94,39.14,175.94,39.2z     "/>
			<path class="st2" d="M179,42.03c0,0.46-0.18,0.82-0.55,1.1c-0.33,0.25-0.73,0.38-1.21,0.38c-0.18,0-0.29,0-0.31-0.01     c-0.05-0.02-0.08-0.1-0.08-0.23c0-0.07-0.01-0.17-0.03-0.3c-0.02-0.13-0.03-0.23-0.03-0.3c0-0.04,0.03-0.07,0.08-0.08     c0.04-0.01,0.1-0.01,0.17,0c0.09,0.01,0.14,0.01,0.14,0.01c0.58,0,0.87-0.18,0.87-0.53c0-0.17-0.13-0.32-0.38-0.46     c-0.41-0.23-0.65-0.37-0.71-0.42c-0.25-0.22-0.38-0.5-0.38-0.85c0-0.46,0.17-0.82,0.52-1.08c0.31-0.23,0.71-0.34,1.19-0.34     c0.04,0,0.07,0.02,0.09,0.06c0.02,0.04,0.06,0.16,0.11,0.37c0.06,0.21,0.09,0.33,0.09,0.38c0,0.03-0.03,0.06-0.09,0.06     c-0.2,0.03-0.39,0.05-0.59,0.08c-0.24,0.06-0.35,0.19-0.35,0.39c0,0.14,0.12,0.28,0.37,0.42c0.37,0.21,0.6,0.35,0.7,0.45     C178.88,41.35,179,41.66,179,42.03z"/>
			<path class="st2" d="M183.56,40.98c0,0.23-0.1,0.38-0.29,0.46c-0.13,0.05-1.08,0.14-2.84,0.27c0.04,0.27,0.19,0.5,0.45,0.69     c0.25,0.18,0.51,0.27,0.79,0.27c0.48,0,0.93-0.16,1.33-0.47c0.05-0.04,0.1-0.08,0.15-0.12c0.02,0,0.04,0,0.05,0.01     c0.01,0.01,0.07,0.11,0.17,0.32c0.11,0.21,0.16,0.32,0.16,0.33c0,0.02-0.02,0.05-0.07,0.11c-0.45,0.48-1.03,0.72-1.73,0.72     c-0.71,0-1.28-0.21-1.7-0.64c-0.42-0.42-0.63-0.99-0.63-1.7c0-0.63,0.2-1.18,0.61-1.65c0.43-0.49,0.95-0.73,1.57-0.73     c0.58,0,1.06,0.21,1.44,0.63C183.37,39.89,183.56,40.39,183.56,40.98z M182.46,40.7c0-0.25-0.1-0.48-0.3-0.68     c-0.2-0.2-0.43-0.29-0.68-0.29c-0.28,0-0.53,0.11-0.75,0.34c-0.22,0.23-0.33,0.48-0.33,0.76c0,0.06,0.06,0.1,0.17,0.1     c0.45,0,1-0.05,1.63-0.14C182.38,40.77,182.46,40.74,182.46,40.7z"/>
		</g>
	</g>
</g>
</svg>